<mxfile host="app.diagrams.net" modified="2024-03-16T03:03:55.285Z" agent="Mozilla/5.0 (Macintosh; Intel Mac OS X 10_15_7) AppleWebKit/537.36 (KHTML, like Gecko) Chrome/122.0.0.0 Safari/537.36" etag="4GVYUySkvPvQ5tCx2QE3" version="24.0.7" type="device">
  <diagram name="Page-1" id="53M_2jYgaUl9bHfNDvYw">
    <mxGraphModel dx="2069" dy="819" grid="1" gridSize="10" guides="1" tooltips="1" connect="1" arrows="1" fold="1" page="1" pageScale="1" pageWidth="827" pageHeight="1169" math="0" shadow="0">
      <root>
        <mxCell id="0" />
        <mxCell id="1" parent="0" />
        <mxCell id="P_TPIv7538cp4Sw5QN1q-18" style="edgeStyle=orthogonalEdgeStyle;rounded=0;orthogonalLoop=1;jettySize=auto;html=1;entryX=0;entryY=0.5;entryDx=0;entryDy=0;" edge="1" parent="1" source="P_TPIv7538cp4Sw5QN1q-1" target="P_TPIv7538cp4Sw5QN1q-14">
          <mxGeometry relative="1" as="geometry" />
        </mxCell>
        <mxCell id="P_TPIv7538cp4Sw5QN1q-1" value="Developers" style="shape=umlActor;verticalLabelPosition=bottom;verticalAlign=top;html=1;outlineConnect=0;" vertex="1" parent="1">
          <mxGeometry x="130" y="380" width="30" height="60" as="geometry" />
        </mxCell>
        <mxCell id="P_TPIv7538cp4Sw5QN1q-23" style="edgeStyle=orthogonalEdgeStyle;rounded=0;orthogonalLoop=1;jettySize=auto;html=1;" edge="1" parent="1" source="P_TPIv7538cp4Sw5QN1q-2">
          <mxGeometry relative="1" as="geometry">
            <mxPoint x="295" y="470" as="targetPoint" />
          </mxGeometry>
        </mxCell>
        <mxCell id="P_TPIv7538cp4Sw5QN1q-2" value="Designers" style="shape=umlActor;verticalLabelPosition=bottom;verticalAlign=top;html=1;outlineConnect=0;" vertex="1" parent="1">
          <mxGeometry x="280" y="520" width="30" height="60" as="geometry" />
        </mxCell>
        <mxCell id="P_TPIv7538cp4Sw5QN1q-21" style="edgeStyle=orthogonalEdgeStyle;rounded=0;orthogonalLoop=1;jettySize=auto;html=1;entryX=1;entryY=0.5;entryDx=0;entryDy=0;" edge="1" parent="1" source="P_TPIv7538cp4Sw5QN1q-5" target="P_TPIv7538cp4Sw5QN1q-14">
          <mxGeometry relative="1" as="geometry" />
        </mxCell>
        <mxCell id="P_TPIv7538cp4Sw5QN1q-5" value="Product Managers" style="shape=umlActor;verticalLabelPosition=bottom;verticalAlign=top;html=1;outlineConnect=0;" vertex="1" parent="1">
          <mxGeometry x="429" y="380" width="30" height="60" as="geometry" />
        </mxCell>
        <mxCell id="P_TPIv7538cp4Sw5QN1q-19" style="edgeStyle=orthogonalEdgeStyle;rounded=0;orthogonalLoop=1;jettySize=auto;html=1;entryX=0;entryY=0;entryDx=0;entryDy=0;" edge="1" parent="1" source="P_TPIv7538cp4Sw5QN1q-6" target="P_TPIv7538cp4Sw5QN1q-14">
          <mxGeometry relative="1" as="geometry" />
        </mxCell>
        <mxCell id="P_TPIv7538cp4Sw5QN1q-6" value="Support" style="shape=umlActor;verticalLabelPosition=bottom;verticalAlign=top;html=1;outlineConnect=0;" vertex="1" parent="1">
          <mxGeometry x="150" y="280" width="20" height="40" as="geometry" />
        </mxCell>
        <mxCell id="P_TPIv7538cp4Sw5QN1q-20" style="edgeStyle=orthogonalEdgeStyle;rounded=0;orthogonalLoop=1;jettySize=auto;html=1;entryX=1;entryY=0;entryDx=0;entryDy=0;" edge="1" parent="1" source="P_TPIv7538cp4Sw5QN1q-7" target="P_TPIv7538cp4Sw5QN1q-14">
          <mxGeometry relative="1" as="geometry" />
        </mxCell>
        <mxCell id="P_TPIv7538cp4Sw5QN1q-7" value="Marketing" style="shape=umlActor;verticalLabelPosition=bottom;verticalAlign=top;html=1;outlineConnect=0;" vertex="1" parent="1">
          <mxGeometry x="429" y="280" width="21" height="40" as="geometry" />
        </mxCell>
        <mxCell id="P_TPIv7538cp4Sw5QN1q-24" style="edgeStyle=orthogonalEdgeStyle;rounded=0;orthogonalLoop=1;jettySize=auto;html=1;entryX=1;entryY=1;entryDx=0;entryDy=0;" edge="1" parent="1" source="P_TPIv7538cp4Sw5QN1q-8" target="P_TPIv7538cp4Sw5QN1q-14">
          <mxGeometry relative="1" as="geometry" />
        </mxCell>
        <mxCell id="P_TPIv7538cp4Sw5QN1q-8" value="Users" style="shape=umlActor;verticalLabelPosition=bottom;verticalAlign=top;html=1;outlineConnect=0;" vertex="1" parent="1">
          <mxGeometry x="390" y="510" width="30" height="60" as="geometry" />
        </mxCell>
        <mxCell id="P_TPIv7538cp4Sw5QN1q-27" style="edgeStyle=orthogonalEdgeStyle;rounded=0;orthogonalLoop=1;jettySize=auto;html=1;entryX=0.5;entryY=1;entryDx=0;entryDy=0;strokeColor=#00994D;" edge="1" parent="1" source="P_TPIv7538cp4Sw5QN1q-14" target="P_TPIv7538cp4Sw5QN1q-28">
          <mxGeometry relative="1" as="geometry">
            <mxPoint x="295" y="190" as="targetPoint" />
          </mxGeometry>
        </mxCell>
        <mxCell id="P_TPIv7538cp4Sw5QN1q-14" value="Collaborate and agree on software behaviour" style="ellipse;whiteSpace=wrap;html=1;aspect=fixed;textShadow=0;fillColor=#CCFFCC;" vertex="1" parent="1">
          <mxGeometry x="240" y="355" width="110" height="110" as="geometry" />
        </mxCell>
        <mxCell id="P_TPIv7538cp4Sw5QN1q-22" style="edgeStyle=orthogonalEdgeStyle;rounded=0;orthogonalLoop=1;jettySize=auto;html=1;entryX=0;entryY=1;entryDx=0;entryDy=0;" edge="1" parent="1" source="P_TPIv7538cp4Sw5QN1q-15" target="P_TPIv7538cp4Sw5QN1q-14">
          <mxGeometry relative="1" as="geometry" />
        </mxCell>
        <mxCell id="P_TPIv7538cp4Sw5QN1q-15" value="Testers" style="shape=umlActor;verticalLabelPosition=bottom;verticalAlign=top;html=1;outlineConnect=0;" vertex="1" parent="1">
          <mxGeometry x="170" y="510" width="30" height="60" as="geometry" />
        </mxCell>
        <mxCell id="P_TPIv7538cp4Sw5QN1q-33" style="edgeStyle=orthogonalEdgeStyle;rounded=0;orthogonalLoop=1;jettySize=auto;html=1;entryX=0;entryY=0.25;entryDx=0;entryDy=0;exitX=1;exitY=0.25;exitDx=0;exitDy=0;strokeColor=#00994D;" edge="1" parent="1" source="P_TPIv7538cp4Sw5QN1q-28" target="P_TPIv7538cp4Sw5QN1q-32">
          <mxGeometry relative="1" as="geometry" />
        </mxCell>
        <mxCell id="P_TPIv7538cp4Sw5QN1q-34" value="sets expectations" style="edgeLabel;html=1;align=center;verticalAlign=middle;resizable=0;points=[];" vertex="1" connectable="0" parent="P_TPIv7538cp4Sw5QN1q-33">
          <mxGeometry x="-0.1444" y="1" relative="1" as="geometry">
            <mxPoint x="1" y="1" as="offset" />
          </mxGeometry>
        </mxCell>
        <mxCell id="P_TPIv7538cp4Sw5QN1q-28" value="cFit Document" style="rounded=0;whiteSpace=wrap;html=1;" vertex="1" parent="1">
          <mxGeometry x="207.5" y="120" width="175" height="90" as="geometry" />
        </mxCell>
        <mxCell id="P_TPIv7538cp4Sw5QN1q-30" value="- Clear business requirements&lt;br&gt;- Describe software behaviour&lt;br&gt;(functionally, not the UI)&lt;br&gt;- Language used is understandable and aligned among stakeholders&amp;nbsp;&lt;br&gt;(ubiquitous language)" style="text;html=1;align=left;verticalAlign=middle;whiteSpace=wrap;rounded=0;labelBackgroundColor=#FFF6A6;spacing=5;spacingTop=5;spacingBottom=5;" vertex="1" parent="1">
          <mxGeometry x="-60" y="115" width="240" height="100" as="geometry" />
        </mxCell>
        <mxCell id="P_TPIv7538cp4Sw5QN1q-35" style="edgeStyle=orthogonalEdgeStyle;rounded=0;orthogonalLoop=1;jettySize=auto;html=1;entryX=1;entryY=0.75;entryDx=0;entryDy=0;exitX=0;exitY=0.75;exitDx=0;exitDy=0;dashed=1;strokeColor=#FF6666;" edge="1" parent="1" source="P_TPIv7538cp4Sw5QN1q-32" target="P_TPIv7538cp4Sw5QN1q-28">
          <mxGeometry relative="1" as="geometry" />
        </mxCell>
        <mxCell id="P_TPIv7538cp4Sw5QN1q-36" value="pass / fail" style="edgeLabel;html=1;align=center;verticalAlign=middle;resizable=0;points=[];fontColor=#FF3333;" vertex="1" connectable="0" parent="P_TPIv7538cp4Sw5QN1q-35">
          <mxGeometry x="0.1709" y="3" relative="1" as="geometry">
            <mxPoint as="offset" />
          </mxGeometry>
        </mxCell>
        <mxCell id="P_TPIv7538cp4Sw5QN1q-45" style="edgeStyle=orthogonalEdgeStyle;rounded=0;orthogonalLoop=1;jettySize=auto;html=1;entryX=0.25;entryY=0;entryDx=0;entryDy=0;exitX=0.25;exitY=1;exitDx=0;exitDy=0;strokeColor=#00994D;" edge="1" parent="1" source="P_TPIv7538cp4Sw5QN1q-32" target="P_TPIv7538cp4Sw5QN1q-37">
          <mxGeometry relative="1" as="geometry" />
        </mxCell>
        <mxCell id="P_TPIv7538cp4Sw5QN1q-54" value="Help form&lt;br&gt;test cases" style="edgeLabel;html=1;align=center;verticalAlign=middle;resizable=0;points=[];" vertex="1" connectable="0" parent="P_TPIv7538cp4Sw5QN1q-45">
          <mxGeometry x="0.5924" y="-1" relative="1" as="geometry">
            <mxPoint x="-41" as="offset" />
          </mxGeometry>
        </mxCell>
        <mxCell id="P_TPIv7538cp4Sw5QN1q-46" style="edgeStyle=orthogonalEdgeStyle;rounded=0;orthogonalLoop=1;jettySize=auto;html=1;entryX=0.25;entryY=0;entryDx=0;entryDy=0;exitX=0.5;exitY=1;exitDx=0;exitDy=0;strokeColor=#00994D;" edge="1" parent="1" source="P_TPIv7538cp4Sw5QN1q-32" target="P_TPIv7538cp4Sw5QN1q-63">
          <mxGeometry relative="1" as="geometry">
            <mxPoint x="995" y="360" as="targetPoint" />
          </mxGeometry>
        </mxCell>
        <mxCell id="P_TPIv7538cp4Sw5QN1q-58" value="Help form&lt;br&gt;test cases" style="edgeLabel;html=1;align=center;verticalAlign=middle;resizable=0;points=[];" vertex="1" connectable="0" parent="P_TPIv7538cp4Sw5QN1q-46">
          <mxGeometry x="0.7333" y="2" relative="1" as="geometry">
            <mxPoint x="-37" y="-4" as="offset" />
          </mxGeometry>
        </mxCell>
        <mxCell id="P_TPIv7538cp4Sw5QN1q-32" value="Running Software" style="rounded=0;whiteSpace=wrap;html=1;" vertex="1" parent="1">
          <mxGeometry x="800" y="120" width="150" height="90" as="geometry" />
        </mxCell>
        <mxCell id="P_TPIv7538cp4Sw5QN1q-37" value="UI" style="rounded=0;whiteSpace=wrap;html=1;" vertex="1" parent="1">
          <mxGeometry x="727" y="360" width="100" height="50" as="geometry" />
        </mxCell>
        <mxCell id="P_TPIv7538cp4Sw5QN1q-52" style="edgeStyle=orthogonalEdgeStyle;rounded=0;orthogonalLoop=1;jettySize=auto;html=1;entryX=0.347;entryY=1.011;entryDx=0;entryDy=0;entryPerimeter=0;dashed=1;fillColor=#f8cecc;strokeColor=#FF3333;" edge="1" parent="1" source="P_TPIv7538cp4Sw5QN1q-37" target="P_TPIv7538cp4Sw5QN1q-32">
          <mxGeometry relative="1" as="geometry">
            <Array as="points">
              <mxPoint x="777" y="310" />
              <mxPoint x="852" y="310" />
            </Array>
          </mxGeometry>
        </mxCell>
        <mxCell id="P_TPIv7538cp4Sw5QN1q-55" value="pass / fail" style="edgeLabel;html=1;align=center;verticalAlign=middle;resizable=0;points=[];fontColor=#FF3333;" vertex="1" connectable="0" parent="P_TPIv7538cp4Sw5QN1q-52">
          <mxGeometry x="-0.643" y="-1" relative="1" as="geometry">
            <mxPoint x="32" y="10" as="offset" />
          </mxGeometry>
        </mxCell>
        <mxCell id="P_TPIv7538cp4Sw5QN1q-59" value="" style="verticalLabelPosition=bottom;verticalAlign=top;html=1;shape=mxgraph.basic.acute_triangle;dx=0.5;" vertex="1" parent="1">
          <mxGeometry x="795" y="365" width="50" height="35" as="geometry" />
        </mxCell>
        <mxCell id="P_TPIv7538cp4Sw5QN1q-60" value="Tests" style="text;html=1;align=center;verticalAlign=middle;whiteSpace=wrap;rounded=0;fontSize=10;" vertex="1" parent="1">
          <mxGeometry x="790" y="375" width="60" height="30" as="geometry" />
        </mxCell>
        <mxCell id="P_TPIv7538cp4Sw5QN1q-63" value="BE / Services" style="swimlane;whiteSpace=wrap;html=1;" vertex="1" parent="1">
          <mxGeometry x="920" y="375" width="245" height="200" as="geometry" />
        </mxCell>
        <mxCell id="P_TPIv7538cp4Sw5QN1q-39" value="Data&lt;br&gt;Storage" style="rounded=0;whiteSpace=wrap;html=1;" vertex="1" parent="P_TPIv7538cp4Sw5QN1q-63">
          <mxGeometry x="10" y="40" width="100" height="50" as="geometry" />
        </mxCell>
        <mxCell id="P_TPIv7538cp4Sw5QN1q-40" value="Events" style="rounded=0;whiteSpace=wrap;html=1;" vertex="1" parent="P_TPIv7538cp4Sw5QN1q-63">
          <mxGeometry x="120" y="70" width="100" height="50" as="geometry" />
        </mxCell>
        <mxCell id="P_TPIv7538cp4Sw5QN1q-41" value="3rd Party&lt;br&gt;(External)" style="rounded=0;whiteSpace=wrap;html=1;" vertex="1" parent="P_TPIv7538cp4Sw5QN1q-63">
          <mxGeometry x="10" y="110" width="100" height="50" as="geometry" />
        </mxCell>
        <mxCell id="P_TPIv7538cp4Sw5QN1q-61" value="" style="verticalLabelPosition=bottom;verticalAlign=top;html=1;shape=mxgraph.basic.acute_triangle;dx=0.5;" vertex="1" parent="P_TPIv7538cp4Sw5QN1q-63">
          <mxGeometry x="190" y="-10" width="50" height="35" as="geometry" />
        </mxCell>
        <mxCell id="P_TPIv7538cp4Sw5QN1q-62" value="Tests" style="text;html=1;align=center;verticalAlign=middle;whiteSpace=wrap;rounded=0;fontSize=10;" vertex="1" parent="P_TPIv7538cp4Sw5QN1q-63">
          <mxGeometry x="185" width="60" height="30" as="geometry" />
        </mxCell>
        <mxCell id="P_TPIv7538cp4Sw5QN1q-65" style="edgeStyle=orthogonalEdgeStyle;rounded=0;orthogonalLoop=1;jettySize=auto;html=1;entryX=0.813;entryY=1.033;entryDx=0;entryDy=0;entryPerimeter=0;dashed=1;strokeColor=#FF3333;" edge="1" parent="1" source="P_TPIv7538cp4Sw5QN1q-63" target="P_TPIv7538cp4Sw5QN1q-32">
          <mxGeometry relative="1" as="geometry">
            <Array as="points">
              <mxPoint x="1043" y="270" />
              <mxPoint x="922" y="270" />
            </Array>
          </mxGeometry>
        </mxCell>
        <mxCell id="P_TPIv7538cp4Sw5QN1q-66" value="pass / fail" style="edgeLabel;html=1;align=center;verticalAlign=middle;resizable=0;points=[];fontColor=#FF3333;" vertex="1" connectable="0" parent="P_TPIv7538cp4Sw5QN1q-65">
          <mxGeometry x="-0.5116" y="1" relative="1" as="geometry">
            <mxPoint x="29" y="4" as="offset" />
          </mxGeometry>
        </mxCell>
      </root>
    </mxGraphModel>
  </diagram>
</mxfile>
